<?xml version="1.0" standalone="no"?>
<!DOCTYPE svg PUBLIC "-//W3C//DTD SVG 20010904//EN"
 "http://www.w3.org/TR/2001/REC-SVG-20010904/DTD/svg10.dtd">
<svg version="1.0" xmlns="http://www.w3.org/2000/svg"
 width="500.000000pt" height="500.000000pt" viewBox="0 0 500.000000 500.000000"
 preserveAspectRatio="xMidYMid meet">

<g transform="translate(0.000000,500.000000) scale(0.100000,-0.100000)"
fill="#000000" stroke="none">
<path d="M1721 3714 c-17 -14 -35 -42 -41 -62 -6 -22 -10 -189 -10 -419 l0
-383 538 0 c505 0 539 -1 572 -19 62 -33 75 -68 78 -216 3 -165 5 -172 46
-192 43 -20 80 -11 103 24 17 25 18 76 23 639 5 584 6 613 24 633 l19 21 -661
0 -660 0 -31 -26z m1147 -108 c2 -10 -2 -22 -10 -27 -7 -5 -192 -9 -410 -9
-384 0 -398 1 -408 19 -8 16 -6 22 7 30 12 7 158 10 418 8 382 -2 400 -3 403
-21z m-3 -293 c16 -16 16 -17 -1 -30 -15 -11 -114 -13 -509 -11 l-490 3 -3 22
c-2 14 3 23 15 26 10 3 233 5 495 6 434 1 478 0 493 -16z m3 -315 l-3 -23
-500 0 -500 0 -3 23 -3 22 506 0 506 0 -3 -22z"/>
<path d="M3126 3715 c-41 -38 -46 -65 -46 -231 l0 -155 128 3 127 3 3 125 c4
170 -2 206 -43 247 -29 29 -39 33 -88 33 -44 0 -59 -5 -81 -25z"/>
<path d="M1264 2756 l-34 -34 0 -727 c0 -400 3 -725 8 -723 4 2 37 20 74 41
l67 38 86 -51 87 -51 89 51 89 51 86 -51 87 -51 80 46 c43 26 86 47 95 47 10
1 53 -20 98 -46 l81 -47 78 46 c43 26 85 47 94 48 9 0 44 -16 79 -36 35 -20
65 -37 68 -37 2 0 4 29 4 65 l0 65 -94 0 c-71 0 -97 4 -106 15 -11 13 -79 15
-505 15 -479 0 -493 1 -498 19 -3 11 -2 22 1 25 3 3 222 6 487 6 265 0 484 2
487 5 3 3 -7 58 -21 123 l-27 117 -459 3 c-466 2 -481 4 -468 39 4 11 89 13
459 13 250 0 454 2 454 5 0 3 -11 57 -25 121 -14 64 -25 117 -25 120 0 2 -193
4 -429 4 -355 0 -430 2 -434 14 -13 34 12 36 435 36 407 0 418 1 418 19 0 11
6 23 13 28 6 4 84 24 172 43 l160 36 5 274 c3 151 9 283 14 293 8 16 -26 17
-644 17 l-652 0 -34 -34z m1124 -102 c2 -15 -4 -23 -20 -28 -13 -3 -238 -6
-500 -6 -454 0 -478 1 -487 18 -22 41 -10 42 509 40 l495 -3 3 -21z m0 -301
l3 -23 -504 0 c-420 0 -506 2 -510 14 -14 35 9 36 513 34 l495 -3 3 -22z"/>
<path d="M2920 2254 c-360 -79 -656 -144 -657 -144 -12 -1 8 -109 65 -370 61
-274 70 -305 87 -305 19 0 20 9 23 323 l2 322 610 0 c504 0 612 2 616 14 8 20
-54 288 -68 298 -16 10 79 29 -678 -138z"/>
<path d="M3700 2106 c0 -57 9 -56 -637 -56 l-593 0 0 -310 0 -310 653 2 652 3
3 339 c2 366 4 356 -50 356 -23 0 -28 -4 -28 -24z m-494 -121 c177 -53 236
-292 103 -424 -70 -71 -192 -94 -287 -56 -53 22 -115 91 -136 152 -46 135 23
278 156 324 65 22 100 23 164 4z m-498 -17 c-3 -20 -10 -23 -60 -26 l-57 -3
-3 -56 c-2 -41 -8 -59 -21 -67 -14 -8 -20 -8 -27 4 -11 17 -14 153 -3 163 3 4
44 7 90 7 82 0 84 -1 81 -22z m1007 -68 c0 -78 -2 -85 -20 -85 -18 0 -20 8
-23 63 l-3 62 -58 0 c-45 0 -60 4 -65 16 -11 29 5 35 87 32 l82 -3 0 -85z
m-1131 -252 c3 -13 6 -42 6 -65 l0 -43 61 0 c57 0 60 -1 57 -22 -3 -21 -9 -23
-82 -26 -57 -2 -82 1 -87 10 -10 16 -12 152 -2 161 14 15 41 6 47 -15z m1134
-65 l-3 -88 -81 -3 c-68 -2 -83 0 -88 14 -10 27 3 34 65 34 l59 0 0 58 c0 64
4 72 32 72 17 0 19 -8 16 -87z"/>
<path d="M3024 1914 c-91 -59 -125 -179 -76 -270 6 -12 27 -35 46 -52 101 -89
250 -61 310 59 72 145 -22 289 -187 289 -40 0 -63 -6 -93 -26z m126 -38 c0
-15 7 -26 20 -29 26 -7 37 -36 19 -48 -8 -5 -31 -9 -51 -9 -20 0 -40 -4 -43
-10 -4 -6 7 -10 27 -10 49 0 78 -24 78 -64 0 -20 -8 -40 -19 -50 -10 -9 -21
-30 -25 -47 -8 -41 -44 -41 -52 0 -5 23 -12 31 -33 33 -18 2 -26 9 -26 23 0
17 8 20 53 23 60 4 69 17 16 25 -46 8 -74 33 -74 65 0 28 26 62 47 62 8 0 13
11 13 29 0 20 6 31 18 34 25 5 32 -1 32 -27z"/>
</g>
</svg>
