<?xml version="1.0" standalone="no"?>
<!DOCTYPE svg PUBLIC "-//W3C//DTD SVG 20010904//EN"
 "http://www.w3.org/TR/2001/REC-SVG-20010904/DTD/svg10.dtd">
<svg version="1.0" xmlns="http://www.w3.org/2000/svg"
 width="656.000000pt" height="142.000000pt" viewBox="0 0 656.000000 142.000000"
 preserveAspectRatio="xMidYMid meet">

<g transform="translate(0.000000,142.000000) scale(0.100000,-0.100000)"
fill="#000000" stroke="none">
<path d="M312 1344 c-22 -15 -22 -19 -22 -229 l0 -214 284 -3 c338 -4 326 1
326 -109 0 -81 14 -119 45 -119 44 0 45 8 45 331 0 176 4 319 10 333 l10 26
-338 0 c-289 0 -341 -2 -360 -16z m598 -59 c0 -13 -29 -15 -204 -15 -112 0
-211 3 -220 6 -45 17 16 24 210 24 184 0 214 -2 214 -15z m0 -155 c0 -6 -95
-10 -266 -10 -174 0 -263 3 -259 10 8 14 525 14 525 0z m-2 -157 c3 -10 -54
-13 -262 -13 -146 0 -266 4 -266 8 0 5 3 12 7 15 4 4 121 6 262 5 193 -2 255
-6 259 -15z"/>
<path d="M1040 1340 c-17 -17 -20 -33 -20 -105 l0 -85 65 0 65 0 0 88 c0 73
-3 92 -18 105 -25 23 -68 21 -92 -3z"/>
<path d="M1999 1077 c-123 -46 -187 -134 -209 -288 -27 -193 52 -378 187 -434
102 -43 240 -25 314 42 66 59 90 133 53 163 -23 20 -76 17 -88 -5 -63 -107
-170 -134 -251 -64 -49 43 -69 112 -69 235 0 86 3 107 24 149 32 64 66 87 132
92 75 5 104 -12 100 -59 -4 -47 9 -72 47 -88 99 -41 162 80 92 177 -41 56
-113 86 -216 90 -50 2 -94 -2 -116 -10z"/>
<path d="M4940 1075 c-131 -41 -196 -180 -137 -295 26 -54 93 -97 206 -135 42
-14 91 -34 109 -45 27 -17 32 -25 32 -59 0 -30 -6 -44 -25 -59 -34 -27 -93
-36 -144 -22 -40 11 -41 12 -41 55 0 35 -5 48 -26 64 -62 49 -144 8 -144 -71
0 -81 55 -137 160 -164 133 -34 272 5 335 94 27 39 30 52 30 116 0 52 -5 79
-18 99 -29 44 -92 84 -180 113 -146 48 -167 64 -167 123 0 58 93 99 162 72 24
-9 26 -14 21 -44 -8 -50 31 -92 85 -92 49 0 79 25 88 71 14 75 -52 161 -141
183 -59 15 -150 13 -205 -4z"/>
<path d="M3743 1003 c-9 -3 -13 -27 -13 -69 l0 -64 -34 0 c-42 0 -66 -22 -66
-59 0 -39 20 -59 60 -63 l35 -3 5 -145 c3 -80 11 -156 17 -170 25 -58 99 -100
172 -100 100 1 206 110 164 169 -23 34 -66 27 -97 -14 -29 -38 -59 -45 -92
-21 -17 13 -19 29 -22 150 l-4 136 69 0 c79 0 93 9 93 60 0 51 -14 60 -92 60
l-68 0 0 58 c0 32 -5 63 -12 70 -12 12 -91 15 -115 5z"/>
<path d="M2632 861 c-103 -35 -153 -109 -160 -236 -5 -94 7 -147 47 -202 77
-107 282 -123 388 -30 58 51 83 116 83 217 0 69 -5 95 -24 136 -53 114 -196
163 -334 115z m157 -115 c49 -26 71 -111 51 -194 -15 -63 -46 -93 -103 -99
-38 -5 -48 -1 -76 24 -71 63 -56 241 22 273 33 13 75 12 106 -4z"/>
<path d="M3391 863 c-19 -9 -47 -37 -62 -62 l-29 -45 0 41 c0 62 -17 73 -109
73 -90 0 -104 -9 -99 -66 3 -35 12 -46 51 -58 15 -5 17 -21 17 -141 0 -120 -2
-136 -17 -141 -39 -12 -48 -23 -51 -58 -5 -61 5 -66 142 -66 66 0 127 4 134 9
9 5 12 25 10 57 -3 49 -3 49 -40 52 l-38 3 0 97 c0 82 4 103 23 136 34 60 50
66 82 28 69 -83 191 10 140 107 -26 51 -90 65 -154 34z"/>
<path d="M4355 871 c-109 -27 -175 -112 -183 -237 -9 -144 56 -255 169 -288
107 -32 192 -16 256 49 49 49 56 85 21 109 -31 22 -42 20 -83 -15 -41 -36
-105 -48 -145 -27 -29 16 -70 73 -70 99 0 18 11 19 170 19 l170 0 0 46 c0 74
-19 130 -62 179 -56 64 -149 89 -243 66z m130 -126 c16 -15 25 -36 25 -55 l0
-30 -96 0 -96 0 6 28 c17 73 112 107 161 57z"/>
<path d="M5595 871 c-109 -27 -175 -112 -183 -237 -9 -144 56 -255 169 -288
107 -32 192 -16 256 49 49 49 56 85 21 109 -31 22 -42 20 -83 -15 -41 -36
-105 -48 -145 -27 -29 16 -70 73 -70 99 0 18 11 19 170 19 l170 0 0 46 c0 74
-19 130 -62 179 -56 64 -149 89 -243 66z m130 -126 c16 -15 25 -36 25 -55 l0
-30 -96 0 -96 0 6 28 c17 73 112 107 161 57z"/>
<path d="M6180 871 c-118 -38 -181 -125 -184 -250 -2 -96 19 -156 73 -212 36
-37 59 -51 105 -64 137 -40 286 24 286 122 0 27 -5 35 -26 43 -28 11 -50 3
-97 -36 -60 -51 -152 -20 -182 60 -22 57 -15 147 13 185 22 30 70 46 106 37
22 -5 26 -12 26 -42 0 -48 14 -70 52 -83 39 -14 93 1 108 29 18 33 11 95 -13
131 -34 51 -97 81 -176 85 -36 2 -77 0 -91 -5z"/>
<path d="M88 854 l-28 -15 0 -380 c0 -209 3 -379 7 -377 5 2 21 10 36 18 26
13 33 12 74 -10 l45 -24 45 24 45 24 47 -25 46 -24 46 25 46 24 46 -24 45 -24
46 25 46 24 40 -23 40 -23 0 36 0 35 -49 0 c-28 0 -53 5 -56 10 -4 6 -104 10
-266 10 -204 0 -260 3 -257 13 4 9 66 13 257 15 208 2 252 5 248 16 -3 7 -9
34 -12 60 l-7 46 -242 2 c-320 4 -324 21 -5 28 l235 5 -13 63 -14 62 -226 0
c-175 0 -224 3 -221 13 4 9 59 13 223 15 171 2 220 5 229 16 6 8 48 22 94 31
l82 18 0 138 c0 75 3 144 6 153 6 14 -27 16 -322 16 -272 -1 -334 -3 -356 -16z
m570 -61 c3 -10 -54 -13 -262 -13 -146 0 -266 4 -266 8 0 5 3 12 7 15 4 4 121
6 262 5 193 -2 255 -6 259 -15z m2 -158 c0 -13 -33 -15 -262 -13 -198 2 -262
6 -266 16 -3 9 54 12 262 12 231 0 266 -2 266 -15z"/>
<path d="M931 584 c-184 -41 -336 -76 -338 -78 -9 -8 73 -340 85 -344 9 -3 12
35 12 167 l0 171 319 0 319 0 -17 77 c-11 53 -21 78 -31 79 -8 1 -165 -31
-349 -72z"/>
<path d="M1337 500 c-5 -19 -14 -20 -321 -20 l-316 0 0 -160 0 -160 340 0 340
0 0 180 c0 170 -1 180 -19 180 -10 0 -21 -9 -24 -20z m-507 -65 c0 -10 -11
-15 -35 -15 -33 0 -35 -2 -35 -35 0 -26 -3 -33 -15 -29 -15 6 -22 74 -8 87 3
4 26 7 50 7 32 0 43 -4 43 -15z m287 -5 c130 -79 41 -275 -107 -238 -101 26
-132 148 -55 225 28 28 40 33 82 33 30 0 60 -7 80 -20z m241 -9 c5 -32 -7 -73
-18 -66 -6 3 -10 19 -10 35 0 25 -4 29 -32 32 -17 2 -33 9 -36 16 -3 10 8 12
44 10 43 -3 49 -6 52 -27z m-598 -170 c0 -26 4 -30 32 -33 17 -2 33 -9 36 -16
3 -10 -8 -12 -44 -10 -45 3 -49 5 -52 31 -2 16 -1 35 2 43 9 25 26 15 26 -15z
m595 -17 l0 -39 -49 -3 c-36 -2 -47 0 -44 10 3 7 19 14 36 16 28 3 32 7 32 33
0 20 4 29 13 27 7 -3 12 -21 12 -44z"/>
<path d="M989 405 c-86 -47 -43 -191 56 -188 95 3 136 109 68 177 -29 30 -81
34 -124 11z m71 -20 c0 -8 5 -15 11 -15 20 0 3 -24 -22 -31 -21 -6 -21 -7 -3
-8 11 -1 25 -6 31 -12 11 -11 6 -49 -7 -49 -4 0 -10 -10 -13 -22 l-6 -21 -25
24 c-33 31 -32 39 2 39 l27 1 -27 15 c-31 16 -35 35 -13 58 8 8 15 19 15 25 0
6 7 11 15 11 8 0 15 -7 15 -15z"/>
</g>
</svg>
