<?xml version="1.0" standalone="no"?>
<!DOCTYPE svg PUBLIC "-//W3C//DTD SVG 20010904//EN"
 "http://www.w3.org/TR/2001/REC-SVG-20010904/DTD/svg10.dtd">
<svg version="1.0" xmlns="http://www.w3.org/2000/svg"
 width="800.000000pt" height="400.000000pt" viewBox="0 0 800.000000 400.000000"
 preserveAspectRatio="xMidYMid meet">

<g transform="translate(0.000000,400.000000) scale(0.100000,-0.100000)"
fill="#000000" stroke="none">
<path d="M1032 2624 c-22 -15 -22 -19 -22 -229 l0 -214 284 -3 c338 -4 326 1
326 -109 0 -81 14 -119 45 -119 44 0 45 8 45 331 0 176 4 319 10 333 l10 26
-338 0 c-289 0 -341 -2 -360 -16z m598 -59 c0 -13 -29 -15 -204 -15 -112 0
-211 3 -220 6 -45 17 16 24 210 24 184 0 214 -2 214 -15z m0 -155 c0 -6 -95
-10 -266 -10 -174 0 -263 3 -259 10 4 6 103 10 266 10 166 0 259 -4 259 -10z
m-2 -157 c3 -10 -54 -13 -262 -13 -146 0 -266 4 -266 8 0 5 3 12 7 15 4 4 121
6 262 5 193 -2 255 -6 259 -15z"/>
<path d="M1760 2620 c-17 -17 -20 -33 -20 -105 l0 -85 65 0 65 0 0 88 c0 73
-3 92 -18 105 -25 23 -68 21 -92 -3z"/>
<path d="M2730 2361 c-127 -42 -197 -134 -221 -292 -31 -207 64 -400 219 -445
67 -20 173 -14 224 11 106 54 164 171 103 211 -33 22 -71 11 -89 -25 -21 -40
-71 -79 -110 -86 -83 -16 -161 39 -187 134 -16 57 -16 201 0 258 25 88 93 132
185 119 52 -8 61 -18 57 -64 -6 -70 62 -112 127 -78 35 18 42 33 42 90 0 58
-33 104 -100 141 -47 25 -68 29 -140 32 -47 1 -96 -1 -110 -6z"/>
<path d="M5660 2355 c-63 -20 -125 -75 -146 -130 -20 -53 -14 -129 13 -176 21
-35 86 -81 147 -103 22 -9 67 -25 98 -36 78 -29 101 -49 101 -90 0 -63 -85
-104 -170 -81 -39 11 -40 12 -39 57 1 56 -26 84 -83 84 -64 0 -100 -52 -87
-125 15 -78 103 -133 230 -142 173 -13 296 79 296 222 0 113 -45 156 -227 222
-54 19 -108 44 -120 55 -51 48 -11 126 67 135 25 3 57 0 71 -5 23 -9 26 -16
25 -51 -1 -55 29 -86 85 -86 33 0 46 6 65 28 54 62 18 164 -73 208 -59 29
-184 36 -253 14z"/>
<path d="M4462 2278 c-7 -7 -12 -38 -12 -70 l0 -58 -33 0 c-40 0 -67 -25 -67
-63 0 -35 25 -57 66 -57 l34 0 0 -132 c1 -182 20 -230 105 -269 80 -37 166
-20 223 45 41 47 50 81 27 106 -29 32 -68 26 -99 -15 -31 -41 -63 -45 -92 -14
-16 18 -19 40 -22 150 l-4 129 76 0 c82 0 96 9 96 64 0 43 -24 56 -101 56
l-69 0 0 58 c0 32 -5 63 -12 70 -7 7 -33 12 -58 12 -25 0 -51 -5 -58 -12z"/>
<path d="M3357 2144 c-103 -32 -167 -135 -167 -264 0 -132 60 -225 166 -256
72 -21 164 -15 220 14 52 26 108 89 125 138 17 51 17 179 0 227 -17 51 -64
103 -115 129 -54 28 -163 33 -229 12z m147 -116 c37 -16 57 -52 63 -111 10
-100 -28 -172 -98 -183 -81 -13 -129 41 -129 144 0 39 7 78 16 98 27 56 91 79
148 52z"/>
<path d="M4111 2143 c-19 -9 -47 -37 -62 -62 l-29 -45 0 41 c0 62 -17 73 -109
73 -92 0 -104 -9 -99 -72 3 -39 6 -43 33 -48 l30 -5 0 -140 0 -140 -25 -4
c-14 -1 -28 -8 -32 -15 -12 -18 -9 -81 4 -94 13 -13 232 -18 262 -6 20 8 31
66 17 93 -9 15 -21 21 -46 21 l-35 0 0 93 c0 101 21 166 59 187 19 9 25 7 47
-20 33 -38 80 -41 121 -6 23 20 28 32 28 70 0 33 -6 51 -21 67 -29 29 -98 35
-143 12z"/>
<path d="M5070 2151 c-69 -21 -123 -66 -156 -131 -26 -52 -31 -174 -9 -240 56
-169 289 -228 412 -105 51 50 56 86 18 111 -29 19 -41 15 -104 -31 -58 -43
-126 -29 -168 34 -41 60 -40 60 145 63 l167 3 3 53 c4 77 -20 142 -73 190 -23
22 -60 45 -81 51 -44 12 -117 13 -154 2z m135 -126 c15 -14 25 -36 25 -53 l0
-28 -92 0 c-93 1 -93 1 -90 26 1 14 16 37 32 53 40 36 91 37 125 2z"/>
<path d="M6310 2151 c-69 -21 -123 -66 -156 -131 -26 -52 -31 -174 -9 -240 56
-169 289 -228 412 -105 51 50 56 86 18 111 -29 19 -41 15 -104 -31 -58 -43
-126 -29 -168 34 -41 60 -40 60 145 63 l167 3 3 53 c4 77 -20 142 -73 190 -23
22 -60 45 -81 51 -44 12 -117 13 -154 2z m135 -126 c15 -14 25 -36 25 -53 l0
-28 -92 0 c-93 1 -93 1 -90 26 1 14 16 37 32 53 40 36 91 37 125 2z"/>
<path d="M6900 2151 c-77 -24 -148 -90 -168 -160 -7 -21 -12 -72 -12 -112 0
-129 63 -221 174 -254 99 -30 181 -15 245 43 50 46 61 82 32 111 -28 28 -41
27 -86 -9 -45 -36 -73 -44 -119 -36 -88 17 -128 135 -84 249 11 29 53 57 87
57 39 0 51 -11 51 -47 0 -48 14 -70 54 -83 73 -24 135 32 121 110 -18 96 -177
167 -295 131z"/>
<path d="M808 2134 l-28 -15 0 -380 c0 -209 3 -379 8 -377 4 2 20 10 35 18 26
13 33 12 74 -10 l45 -24 45 24 45 24 47 -25 46 -24 46 25 46 24 46 -24 45 -24
46 25 46 24 40 -23 40 -23 0 36 0 35 -49 0 c-28 0 -53 5 -56 10 -4 6 -104 10
-266 10 -204 0 -260 3 -257 13 4 9 66 13 257 15 208 2 252 5 248 16 -3 7 -9
34 -12 60 l-7 46 -242 2 c-320 4 -324 21 -5 28 l235 5 -13 63 -14 62 -226 0
c-175 0 -224 3 -221 13 4 9 59 13 223 15 171 2 220 5 229 16 6 8 48 22 94 31
l82 18 0 138 c0 75 3 144 6 153 6 14 -27 16 -322 16 -272 -1 -334 -3 -356 -16z
m570 -61 c3 -10 -54 -13 -262 -13 -146 0 -266 4 -266 8 0 5 3 12 7 15 4 4 121
6 262 5 193 -2 255 -6 259 -15z m2 -158 c0 -13 -33 -15 -262 -13 -198 2 -262
6 -266 16 -3 9 54 12 262 12 231 0 266 -2 266 -15z"/>
<path d="M1651 1864 c-184 -41 -336 -76 -338 -78 -9 -8 73 -340 85 -344 9 -3
12 35 12 167 l0 171 319 0 319 0 -17 77 c-11 53 -21 78 -31 79 -8 1 -165 -31
-349 -72z"/>
<path d="M2057 1780 c-5 -19 -14 -20 -321 -20 l-316 0 0 -160 0 -160 340 0
340 0 0 180 c0 170 -1 180 -19 180 -10 0 -21 -9 -24 -20z m-507 -65 c0 -10
-11 -15 -35 -15 -33 0 -35 -2 -35 -35 0 -26 -3 -33 -15 -29 -15 6 -22 74 -8
87 3 4 26 7 50 7 32 0 43 -4 43 -15z m287 -5 c130 -79 41 -275 -107 -238 -101
26 -132 148 -55 225 28 28 40 33 82 33 30 0 60 -7 80 -20z m241 -9 c5 -32 -7
-73 -18 -66 -6 3 -10 19 -10 35 0 25 -4 29 -32 32 -17 2 -33 9 -36 16 -3 10 8
12 44 10 43 -3 49 -6 52 -27z m-598 -170 c0 -26 4 -30 32 -33 17 -2 33 -9 36
-16 3 -10 -8 -12 -44 -10 -45 3 -49 5 -52 31 -2 16 -1 35 2 43 9 25 26 15 26
-15z m595 -17 l0 -39 -49 -3 c-36 -2 -47 0 -44 10 3 7 19 14 36 16 28 3 32 7
32 33 0 20 4 29 13 27 7 -3 12 -21 12 -44z"/>
<path d="M1709 1685 c-86 -47 -43 -191 56 -188 95 3 136 109 68 177 -29 30
-81 34 -124 11z m71 -20 c0 -8 5 -15 11 -15 20 0 3 -24 -22 -31 -21 -6 -21 -7
-3 -8 11 -1 25 -6 31 -12 11 -11 6 -49 -7 -49 -4 0 -10 -10 -13 -22 l-6 -21
-25 24 c-33 31 -32 39 2 39 l27 1 -27 15 c-31 16 -35 35 -13 58 8 8 15 19 15
25 0 6 7 11 15 11 8 0 15 -7 15 -15z"/>
</g>
</svg>
