<?xml version="1.0" standalone="no"?>
<!DOCTYPE svg PUBLIC "-//W3C//DTD SVG 20010904//EN"
 "http://www.w3.org/TR/2001/REC-SVG-20010904/DTD/svg10.dtd">
<svg version="1.0" xmlns="http://www.w3.org/2000/svg"
 width="520.000000pt" height="520.000000pt" viewBox="0 0 520.000000 520.000000"
 preserveAspectRatio="xMidYMid meet">

<g transform="translate(0.000000,520.000000) scale(0.100000,-0.100000)"
fill="#000000" stroke="none">
<path d="M1175 4969 c-45 -12 -115 -77 -136 -123 -18 -39 -19 -85 -19 -808 l0
-768 1028 -2 1027 -3 41 -22 c63 -34 97 -66 124 -119 24 -48 25 -57 30 -314 5
-251 6 -267 27 -300 25 -40 53 -60 103 -71 76 -18 170 37 190 111 6 22 10 448
10 1147 0 1074 1 1115 19 1163 11 28 31 67 46 86 l26 34 -1243 -1 c-687 0
-1257 -5 -1273 -10z m2109 -222 c22 -16 25 -65 5 -78 -8 -5 -364 -9 -791 -9
-758 0 -778 0 -788 19 -14 28 -13 38 10 61 20 20 33 20 783 20 619 0 767 -3
781 -13z m6 -587 c24 -24 24 -29 4 -58 l-15 -22 -935 0 c-626 0 -942 3 -955
10 -25 14 -26 65 -1 79 11 7 335 10 950 11 919 0 932 0 952 -20z m5 -584 c19
-28 12 -50 -21 -65 -18 -8 -279 -11 -942 -11 -814 0 -920 2 -940 16 -24 17
-29 53 -10 72 9 9 235 12 955 12 l943 0 15 -24z"/>
<path d="M3851 4967 c-50 -19 -111 -75 -132 -121 -17 -37 -19 -70 -19 -348 l0
-308 245 0 245 0 0 288 c0 217 -3 300 -14 335 -31 104 -104 158 -220 163 -41
2 -85 -2 -105 -9z"/>
<path d="M319 3156 c-56 -20 -96 -53 -126 -104 l-28 -47 -3 -1378 c-1 -758 1
-1376 5 -1374 5 2 68 39 142 82 155 90 117 93 324 -27 77 -45 145 -81 151 -81
6 0 82 41 170 92 184 108 143 109 350 -11 76 -45 144 -81 150 -81 6 0 82 41
170 92 184 108 143 109 350 -11 76 -45 144 -81 150 -81 6 0 82 41 168 91 87
51 161 92 165 92 5 0 70 -36 146 -79 l137 -79 0 129 0 129 -162 0 c-145 0
-167 2 -195 20 -18 11 -33 24 -33 30 0 7 -308 10 -931 10 -622 0 -937 3 -950
10 -22 12 -26 59 -7 78 9 9 230 12 935 12 508 0 923 2 923 4 0 1 -22 105 -50
230 -27 125 -50 229 -50 231 0 3 -393 5 -873 5 -666 0 -876 3 -885 12 -19 19
-15 66 7 78 13 7 303 10 870 10 804 0 851 1 851 18 -1 9 -22 114 -48 232 l-48
215 -808 3 c-578 1 -813 5 -823 13 -20 17 -16 67 6 79 13 7 284 10 810 10 708
0 791 2 791 15 0 25 28 72 47 80 10 5 153 38 318 75 l300 67 5 509 5 509 26
53 26 52 -1221 0 c-972 -1 -1228 -4 -1257 -14z m2045 -222 c23 -22 20 -60 -6
-78 -20 -14 -126 -16 -943 -16 -817 0 -923 2 -943 16 -33 23 -28 73 8 87 8 3
432 6 942 6 830 1 928 -1 942 -15z m0 -570 c20 -19 21 -58 2 -73 -10 -8 -268
-10 -956 -9 -850 3 -944 5 -953 19 -14 22 -1 67 21 72 9 3 434 5 944 6 830 1
928 -1 942 -15z"/>
<path d="M4190 2314 c-234 -52 -787 -173 -1230 -270 -589 -128 -810 -180 -823
-193 -18 -18 -15 -36 108 -597 69 -319 133 -602 141 -631 15 -56 38 -72 74
-53 20 11 20 17 20 620 l0 610 1155 0 c1145 0 1155 0 1175 20 13 13 18 28 15
43 -3 12 -30 134 -60 271 -30 137 -60 255 -66 262 -6 8 -28 14 -48 13 -20 -1
-227 -43 -461 -95z"/>
<path d="M4873 1861 c1 -45 -23 -88 -59 -101 -16 -6 -461 -10 -1154 -10
l-1130 0 -2 -595 -3 -595 1238 0 c1224 0 1237 0 1257 20 20 20 20 33 20 648 0
552 -2 630 -16 650 -13 19 -24 22 -84 22 l-69 0 2 -39z m-968 -226 c191 -49
333 -206 366 -403 24 -145 -23 -290 -133 -407 -184 -197 -496 -204 -688 -15
-99 96 -150 217 -150 350 0 135 47 247 146 346 121 122 296 171 459 129z
m-923 -12 c22 -20 23 -46 2 -67 -12 -13 -39 -16 -125 -16 l-109 0 0 -115 c0
-105 -2 -115 -20 -125 -28 -15 -59 -3 -71 27 -5 13 -9 80 -9 149 0 168 -5 164
177 164 113 0 140 -3 155 -17z m1922 1 c13 -13 16 -42 16 -159 0 -117 -3 -146
-16 -159 -21 -21 -40 -20 -64 4 -17 17 -20 33 -20 125 l0 105 -101 0 c-111 0
-139 9 -139 45 0 49 20 55 170 55 113 0 142 -3 154 -16z m-2166 -607 c6 -7 13
-62 14 -123 l3 -109 115 -5 115 -5 10 -29 c8 -24 6 -31 -14 -47 -20 -17 -41
-19 -155 -19 -98 0 -137 4 -152 14 -17 13 -19 29 -22 151 -3 112 -1 140 12
161 18 26 57 32 74 11z m2170 1 c8 -8 12 -58 12 -159 0 -121 -3 -150 -16 -163
-12 -13 -41 -16 -154 -16 -149 0 -170 7 -170 54 0 40 18 46 132 46 l108 0 0
103 c0 77 4 108 16 125 17 24 53 29 72 10z"/>
<path d="M3690 1541 c-113 -38 -207 -117 -256 -216 -26 -54 -29 -70 -29 -160
0 -92 3 -106 32 -167 56 -120 161 -198 297 -221 114 -19 243 22 324 103 153
154 160 384 15 540 -80 86 -158 123 -272 127 -47 1 -97 -1 -111 -6z m130 -81
c13 -13 20 -33 20 -60 0 -35 3 -40 23 -40 48 0 77 -46 49 -79 -14 -17 -31 -21
-102 -23 -77 -3 -85 -5 -85 -23 0 -17 8 -21 65 -25 78 -6 113 -27 134 -80 11
-29 13 -46 5 -73 -9 -33 -59 -87 -80 -87 -5 0 -9 -20 -9 -44 0 -48 -19 -76
-50 -76 -30 0 -50 28 -50 71 0 37 -2 39 -29 39 -67 0 -104 36 -82 78 8 16 25
20 99 24 98 6 114 11 105 33 -3 10 -20 15 -54 15 -66 0 -114 22 -139 62 -40
66 -14 142 59 174 39 17 41 20 41 60 0 33 5 46 22 58 29 20 34 20 58 -4z"/>
</g>
</svg>
