<?xml version="1.0" standalone="no"?>
<!DOCTYPE svg PUBLIC "-//W3C//DTD SVG 20010904//EN"
 "http://www.w3.org/TR/2001/REC-SVG-20010904/DTD/svg10.dtd">
<svg version="1.0" xmlns="http://www.w3.org/2000/svg"
 width="800.000000pt" height="800.000000pt" viewBox="0 0 800.000000 800.000000"
 preserveAspectRatio="xMidYMid meet">

<g transform="translate(0.000000,800.000000) scale(0.100000,-0.100000)"
fill="#000000" stroke="none">
<path d="M1032 4624 c-22 -15 -22 -19 -22 -229 l0 -214 284 -3 c338 -4 326 1
326 -109 0 -81 14 -119 45 -119 44 0 45 8 45 331 0 176 4 319 10 333 l10 26
-338 0 c-289 0 -341 -2 -360 -16z m598 -59 c0 -13 -29 -15 -204 -15 -112 0
-211 3 -220 6 -45 17 16 24 210 24 184 0 214 -2 214 -15z m0 -155 c0 -6 -95
-10 -266 -10 -174 0 -263 3 -259 10 4 6 103 10 266 10 166 0 259 -4 259 -10z
m-2 -157 c3 -10 -54 -13 -262 -13 -146 0 -266 4 -266 8 0 5 3 12 7 15 4 4 121
6 262 5 193 -2 255 -6 259 -15z"/>
<path d="M1760 4620 c-17 -17 -20 -33 -20 -105 l0 -85 65 0 65 0 0 88 c0 73
-3 92 -18 105 -25 23 -68 21 -92 -3z"/>
<path d="M2719 4357 c-122 -46 -187 -135 -209 -285 -27 -195 52 -381 187 -437
61 -26 150 -30 217 -11 128 37 217 184 136 223 -38 18 -65 6 -96 -43 -51 -80
-157 -96 -229 -33 -49 43 -69 111 -69 235 0 86 3 107 24 149 32 64 66 87 132
92 75 5 104 -12 100 -59 -4 -47 9 -72 47 -88 99 -41 162 80 92 177 -41 56
-113 86 -216 90 -50 2 -94 -2 -116 -10z"/>
<path d="M5680 4361 c-14 -4 -44 -17 -66 -29 -121 -62 -152 -216 -62 -310 39
-40 74 -59 193 -102 100 -36 113 -44 126 -77 27 -72 -69 -130 -170 -103 -40
10 -42 13 -36 40 7 32 -15 84 -40 94 -38 14 -77 6 -107 -24 -27 -27 -30 -36
-26 -75 7 -60 41 -103 107 -134 49 -22 69 -26 151 -25 103 1 143 13 200 61 84
71 94 221 19 292 -33 31 -78 53 -184 90 -105 37 -135 61 -135 106 0 46 37 77
98 83 68 6 87 -7 88 -58 0 -55 30 -85 85 -85 33 0 46 6 66 30 21 24 24 36 21
76 -10 98 -87 152 -223 156 -44 1 -91 -1 -105 -6z"/>
<path d="M4462 4278 c-7 -7 -12 -38 -12 -70 l0 -58 -35 0 c-43 0 -71 -35 -60
-77 8 -34 21 -43 63 -43 l32 0 0 -132 c1 -182 20 -230 105 -269 80 -37 167
-19 225 47 39 45 47 79 25 104 -28 31 -66 25 -98 -15 -34 -43 -67 -46 -96 -9
-19 24 -21 40 -21 150 l0 124 69 0 c78 0 101 13 101 59 0 45 -27 61 -103 61
l-67 0 0 58 c0 32 -5 63 -12 70 -16 16 -100 16 -116 0z"/>
<path d="M3357 4144 c-111 -35 -174 -146 -165 -289 11 -164 121 -257 287 -242
150 13 237 119 235 287 -2 113 -43 189 -127 231 -53 28 -166 34 -230 13z m160
-124 c70 -42 72 -206 2 -264 -51 -43 -124 -31 -159 26 -25 42 -27 145 -4 194
29 62 100 81 161 44z"/>
<path d="M4111 4143 c-19 -9 -47 -37 -62 -62 l-29 -45 0 41 c0 62 -17 73 -109
73 -90 0 -104 -9 -99 -66 3 -35 12 -46 51 -58 15 -5 17 -21 17 -141 0 -120 -2
-136 -17 -141 -39 -12 -48 -23 -51 -58 -5 -61 5 -66 142 -66 66 0 127 4 134 9
9 5 12 25 10 57 -3 49 -3 49 -41 52 l-39 3 4 108 c3 100 5 110 31 144 15 20
33 37 38 37 6 0 22 -13 36 -30 68 -81 188 14 138 109 -26 51 -90 65 -154 34z"/>
<path d="M5075 4151 c-109 -27 -175 -112 -183 -237 -9 -144 56 -255 169 -288
107 -32 192 -16 256 49 49 49 56 85 21 109 -31 22 -42 20 -83 -15 -41 -36
-105 -48 -145 -27 -29 16 -70 73 -70 99 0 18 11 19 170 19 l170 0 0 46 c0 74
-19 130 -62 179 -56 64 -149 89 -243 66z m130 -126 c16 -15 25 -36 25 -55 l0
-30 -96 0 -96 0 6 28 c17 73 112 107 161 57z"/>
<path d="M6315 4151 c-109 -27 -175 -112 -183 -237 -9 -144 56 -255 169 -288
107 -32 192 -16 256 49 49 49 56 85 21 109 -31 22 -42 20 -83 -15 -41 -36
-105 -48 -145 -27 -29 16 -70 73 -70 99 0 18 11 19 170 19 l170 0 0 46 c0 74
-19 130 -62 179 -56 64 -149 89 -243 66z m130 -126 c16 -15 25 -36 25 -55 l0
-30 -96 0 -96 0 6 28 c17 73 112 107 161 57z"/>
<path d="M6882 4142 c-66 -24 -114 -69 -142 -135 -29 -67 -25 -200 8 -264 83
-160 351 -179 428 -31 30 59 -21 108 -73 71 -63 -45 -80 -53 -110 -53 -70 0
-118 48 -129 131 -7 53 10 123 36 149 24 24 62 34 95 26 21 -5 25 -12 25 -44
1 -44 16 -67 55 -82 67 -25 133 33 119 106 -20 110 -179 173 -312 126z"/>
<path d="M808 4134 l-28 -15 0 -380 c0 -209 3 -379 8 -377 4 2 20 10 35 18 26
13 33 12 74 -10 l45 -24 45 24 45 24 47 -25 46 -24 46 25 46 24 46 -24 45 -24
46 25 46 24 40 -23 40 -23 0 36 0 35 -49 0 c-28 0 -53 5 -56 10 -4 6 -104 10
-266 10 -204 0 -260 3 -257 13 4 9 66 13 257 15 208 2 252 5 248 16 -3 7 -9
34 -12 60 l-7 46 -242 2 c-320 4 -324 21 -5 28 l235 5 -13 63 -14 62 -226 0
c-175 0 -224 3 -221 13 4 9 59 13 223 15 171 2 220 5 229 16 6 8 48 22 94 31
l82 18 0 138 c0 75 3 144 6 153 6 14 -27 16 -322 16 -272 -1 -334 -3 -356 -16z
m570 -61 c3 -10 -54 -13 -262 -13 -146 0 -266 4 -266 8 0 5 3 12 7 15 4 4 121
6 262 5 193 -2 255 -6 259 -15z m2 -158 c0 -13 -33 -15 -262 -13 -198 2 -262
6 -266 16 -3 9 54 12 262 12 231 0 266 -2 266 -15z"/>
<path d="M1651 3864 c-184 -41 -336 -76 -338 -78 -9 -8 73 -340 85 -344 9 -3
12 35 12 167 l0 171 319 0 319 0 -17 77 c-11 53 -21 78 -31 79 -8 1 -165 -31
-349 -72z"/>
<path d="M2057 3780 c-5 -19 -14 -20 -321 -20 l-316 0 0 -160 0 -160 340 0
340 0 0 180 c0 170 -1 180 -19 180 -10 0 -21 -9 -24 -20z m-507 -65 c0 -10
-11 -15 -35 -15 -33 0 -35 -2 -35 -35 0 -26 -3 -33 -15 -29 -15 6 -22 74 -8
87 3 4 26 7 50 7 32 0 43 -4 43 -15z m287 -5 c130 -79 41 -275 -107 -238 -101
26 -132 148 -55 225 28 28 40 33 82 33 30 0 60 -7 80 -20z m241 -9 c5 -32 -7
-73 -18 -66 -6 3 -10 19 -10 35 0 25 -4 29 -32 32 -17 2 -33 9 -36 16 -3 10 8
12 44 10 43 -3 49 -6 52 -27z m-598 -170 c0 -26 4 -30 32 -33 17 -2 33 -9 36
-16 3 -10 -8 -12 -44 -10 -45 3 -49 5 -52 31 -2 16 -1 35 2 43 9 25 26 15 26
-15z m595 -17 l0 -39 -49 -3 c-36 -2 -47 0 -44 10 3 7 19 14 36 16 28 3 32 7
32 33 0 20 4 29 13 27 7 -3 12 -21 12 -44z"/>
<path d="M1709 3685 c-86 -47 -43 -191 56 -188 95 3 136 109 68 177 -29 30
-81 34 -124 11z m71 -20 c0 -8 5 -15 11 -15 20 0 3 -24 -22 -31 -21 -6 -21 -7
-3 -8 11 -1 25 -6 31 -12 11 -11 6 -49 -7 -49 -4 0 -10 -10 -13 -22 l-6 -21
-25 24 c-33 31 -32 39 2 39 l27 1 -27 15 c-31 16 -35 35 -13 58 8 8 15 19 15
25 0 6 7 11 15 11 8 0 15 -7 15 -15z"/>
</g>
</svg>
