<?xml version="1.0" standalone="no"?>
<!DOCTYPE svg PUBLIC "-//W3C//DTD SVG 20010904//EN"
 "http://www.w3.org/TR/2001/REC-SVG-20010904/DTD/svg10.dtd">
<svg version="1.0" xmlns="http://www.w3.org/2000/svg"
 width="64.000000pt" height="64.000000pt" viewBox="0 0 64.000000 64.000000"
 preserveAspectRatio="xMidYMid meet">

<g transform="translate(0.000000,64.000000) scale(0.100000,-0.100000)"
fill="#000000" stroke="none">
<path d="M172 548 c-7 -7 -12 -42 -12 -85 l0 -73 103 0 c112 0 127 -6 127 -52
0 -18 5 -28 15 -28 13 0 15 21 15 125 l0 125 -118 0 c-78 0 -122 -4 -130 -12z
m213 -18 c4 -6 -21 -10 -69 -10 -41 0 -78 5 -81 10 -4 6 21 10 69 10 41 0 78
-4 81 -10z m-37 -57 c-26 -2 -71 -2 -100 0 -29 2 -8 3 47 3 55 0 79 -1 53 -3z
m0 -60 c-26 -2 -71 -2 -100 0 -29 2 -8 3 47 3 55 0 79 -1 53 -3z"/>
<path d="M443 553 c-7 -3 -13 -20 -13 -39 0 -30 3 -34 25 -34 21 0 25 5 25 29
0 31 -17 51 -37 44z"/>
<path d="M93 373 c-10 -3 -13 -42 -13 -143 0 -130 1 -138 19 -133 10 3 22 0
25 -6 5 -8 13 -8 27 -1 13 7 25 7 38 0 11 -5 22 -6 25 -1 3 4 30 7 61 6 30 -1
55 2 55 7 0 10 6 9 -120 18 l-105 7 94 1 c80 2 92 4 87 18 -3 9 -6 18 -6 20 0
2 -38 4 -85 4 -50 0 -85 4 -85 10 0 6 36 10 89 10 l89 0 6 -35 7 -35 129 0
130 0 0 66 c0 41 -4 63 -10 59 -6 -3 -7 -18 -4 -33 l7 -27 -20 23 c-15 16 -31
22 -59 21 -34 0 -36 -1 -16 -9 29 -12 37 -35 24 -66 -13 -27 -58 -34 -80 -12
-19 19 -14 55 10 72 22 16 21 16 -20 16 -24 0 -41 -4 -38 -8 2 -4 -5 -14 -16
-21 -19 -12 -20 -11 -15 8 2 11 0 22 -7 25 -6 2 42 5 108 5 l118 1 -7 27 c-4
16 -7 29 -8 30 -7 6 -247 -52 -249 -61 -2 -7 -30 -9 -88 -5 l-85 5 78 2 c42 1
85 6 95 11 9 5 25 12 35 15 12 4 17 16 17 45 0 22 3 46 6 55 5 14 -8 16 -112
15 -66 0 -125 -3 -131 -6z m202 -23 c4 -6 -28 -10 -89 -10 -57 0 -96 4 -96 10
0 6 36 10 89 10 50 0 93 -4 96 -10z m-37 -57 c-26 -2 -71 -2 -100 0 -29 2 -8
3 47 3 55 0 79 -1 53 -3z m88 -148 c14 -13 13 -15 -5 -15 -12 0 -21 6 -21 15
0 8 3 15 6 15 3 0 12 -7 20 -15z m204 0 c0 -8 -7 -15 -15 -15 -13 0 -14 3 -3
15 16 18 18 18 18 0z"/>
<path d="M409 194 c-9 -11 -10 -20 -2 -32 25 -41 86 -14 63 27 -16 31 -27 25
-22 -10 4 -24 1 -30 -9 -27 -8 3 -13 17 -12 32 2 30 0 32 -18 10z"/>
</g>
</svg>
